<svg width="260" height="260" viewBox="0 0 260 260" fill="none" xmlns="http://www.w3.org/2000/svg">
<mask id="mask0_29_206" style="mask-type:alpha" maskUnits="userSpaceOnUse" x="0" y="0" width="260" height="260">
<circle cx="130" cy="130" r="125.5" fill="url(#paint0_linear_29_206)" stroke="white" stroke-width="9"/>
</mask>
<g mask="url(#mask0_29_206)">
<circle cx="130" cy="130" r="125.5" fill="url(#paint1_linear_29_206)" stroke="url(#paint2_linear_29_206)" stroke-width="9"/>
<path d="M189.597 94.416C179.603 71.2012 156.691 55 130 55C103.309 55 80.3969 71.2012 70.4031 94.416C63.7406 94.9902 58.5 100.609 58.5 107.5V133.75C58.5 140.641 63.7406 146.26 70.4031 146.834C80.3969 170.049 103.309 186.25 130 186.25C156.691 186.25 179.603 170.049 189.597 146.834C196.259 146.26 201.5 140.641 201.5 133.75V107.5C201.5 100.609 196.259 94.9902 189.597 94.416ZM175.5 114.062V120.625C175.5 142.363 158.031 160 136.5 160H123.5C101.969 160 84.5 142.363 84.5 120.625V114.062C84.5 103.193 93.2344 94.375 104 94.375H156C166.766 94.375 175.5 103.193 175.5 114.062ZM115.903 121.732L113.466 113.037C113.1 111.684 111.881 110.781 110.5 110.781C109.119 110.781 107.9 111.684 107.534 113.037L105.097 121.732L96.4844 124.193C95.1438 124.562 94.25 125.793 94.25 127.188C94.25 128.582 95.1438 129.813 96.4844 130.182L105.097 132.643L107.534 141.338C107.9 142.691 109.119 143.594 110.5 143.594C111.881 143.594 113.1 142.691 113.466 141.338L115.903 132.643L124.516 130.182C125.856 129.813 126.75 128.582 126.75 127.188C126.75 125.793 125.856 124.562 124.516 124.193L115.903 121.732ZM84.7844 184.814C57.9719 195.52 39 221.934 39 252.818C39 259.545 44.4031 265 51.0656 265H91V238.75C91 231.49 96.8094 225.625 104 225.625H156C163.191 225.625 169 231.49 169 238.75V265H208.934C215.597 265 221 259.545 221 252.818C221 221.934 202.028 195.52 175.216 184.814C162.459 193.961 146.859 199.375 130 199.375C113.141 199.375 97.5406 193.961 84.7844 184.814ZM110.5 238.75C106.925 238.75 104 241.703 104 245.312V265H117V245.312C117 241.703 114.075 238.75 110.5 238.75ZM149.5 251.875C153.075 251.875 156 248.922 156 245.312C156 241.703 153.075 238.75 149.5 238.75C145.925 238.75 143 241.703 143 245.312C143 248.922 145.925 251.875 149.5 251.875Z" fill="url(#paint3_linear_29_206)"/>
</g>
<defs>
<linearGradient id="paint0_linear_29_206" x1="130" y1="0" x2="130" y2="260" gradientUnits="userSpaceOnUse">
<stop stop-color="#477EEB"/>
<stop offset="1" stop-color="#0F388A"/>
</linearGradient>
<linearGradient id="paint1_linear_29_206" x1="130" y1="0" x2="130" y2="260" gradientUnits="userSpaceOnUse">
<stop stop-color="#477EEB"/>
<stop offset="1" stop-color="#0F388A"/>
</linearGradient>
<linearGradient id="paint2_linear_29_206" x1="130" y1="0" x2="130" y2="260" gradientUnits="userSpaceOnUse">
<stop stop-color="white"/>
<stop offset="1" stop-color="#CCCCCC"/>
</linearGradient>
<linearGradient id="paint3_linear_29_206" x1="130" y1="55" x2="130" y2="265" gradientUnits="userSpaceOnUse">
<stop stop-color="white"/>
<stop offset="0.9999" stop-color="#CCCCCC"/>
<stop offset="1" stop-color="white" stop-opacity="0"/>
</linearGradient>
</defs>
</svg>
