<svg width="140" height="21" viewBox="0 0 140 21" fill="none" xmlns="http://www.w3.org/2000/svg">
<path d="M6.468 20.392C5.516 20.392 4.66667 20.2427 3.92 19.944C3.192 19.6267 2.56667 19.2253 2.044 18.74C1.54 18.2547 1.13867 17.732 0.84 17.172C0.541333 16.612 0.336 16.0707 0.224 15.548L3.584 14.288C3.78933 15.1093 4.13467 15.7533 4.62 16.22C5.124 16.668 5.75867 16.892 6.524 16.892C7.084 16.892 7.616 16.7613 8.12 16.5C8.624 16.2387 9.02533 15.8187 9.324 15.24C9.64133 14.6613 9.8 13.9147 9.8 13V0.399999H13.608V14.12C13.608 15.0907 13.4307 15.968 13.076 16.752C12.7213 17.5173 12.2173 18.1707 11.564 18.712C10.9293 19.2533 10.1733 19.6733 9.296 19.972C8.43733 20.252 7.49467 20.392 6.468 20.392ZM24.4652 20.336C23.0279 20.336 21.7492 20.028 20.6292 19.412C19.5279 18.7773 18.6599 17.9093 18.0252 16.808C17.3906 15.7067 17.0732 14.4373 17.0732 13C17.0732 11.5627 17.3812 10.2933 17.9972 9.192C18.6319 8.09067 19.4999 7.232 20.6012 6.616C21.7212 5.98133 22.9906 5.664 24.4092 5.664C25.8652 5.664 27.1439 5.98133 28.2452 6.616C29.3466 7.232 30.2052 8.09067 30.8212 9.192C31.4559 10.2933 31.7732 11.5627 31.7732 13C31.7732 14.4373 31.4559 15.7067 30.8212 16.808C30.2052 17.9093 29.3466 18.7773 28.2452 19.412C27.1626 20.028 25.9026 20.336 24.4652 20.336ZM24.4652 16.724C25.1186 16.724 25.6879 16.5653 26.1732 16.248C26.6772 15.9307 27.0692 15.492 27.3492 14.932C27.6292 14.372 27.7692 13.728 27.7692 13C27.7692 12.272 27.6199 11.628 27.3212 11.068C27.0412 10.508 26.6492 10.0693 26.1452 9.752C25.6412 9.43467 25.0626 9.276 24.4092 9.276C23.7746 9.276 23.2052 9.43467 22.7012 9.752C22.1972 10.0693 21.8052 10.508 21.5252 11.068C21.2452 11.628 21.1052 12.272 21.1052 13C21.1052 13.728 21.2452 14.372 21.5252 14.932C21.8052 15.492 22.1972 15.9307 22.7012 16.248C23.2239 16.5653 23.8119 16.724 24.4652 16.724ZM34.9816 20V0.399999H38.6776V17.396L38.4816 20H34.9816ZM42.9056 20.336C41.7296 20.336 40.731 20.0373 39.9096 19.44C39.107 18.8427 38.491 17.9933 38.0616 16.892C37.6323 15.7907 37.4176 14.4933 37.4176 13C37.4176 11.488 37.6323 10.1907 38.0616 9.108C38.491 8.00667 39.107 7.15733 39.9096 6.56C40.731 5.96267 41.7296 5.664 42.9056 5.664C44.1936 5.664 45.3043 5.96267 46.2376 6.56C47.1896 7.15733 47.927 8.00667 48.4496 9.108C48.9723 10.1907 49.2336 11.488 49.2336 13C49.2336 14.4933 48.9723 15.7907 48.4496 16.892C47.927 17.9933 47.1896 18.8427 46.2376 19.44C45.3043 20.0373 44.1936 20.336 42.9056 20.336ZM41.9536 16.948C42.6256 16.948 43.2136 16.78 43.7176 16.444C44.2403 16.108 44.651 15.6413 44.9496 15.044C45.2483 14.4467 45.3976 13.7653 45.3976 13C45.3976 12.2347 45.2483 11.5533 44.9496 10.956C44.6696 10.3587 44.2683 9.90133 43.7456 9.584C43.2416 9.248 42.6536 9.08 41.9816 9.08C41.347 9.08 40.7776 9.248 40.2736 9.584C39.7696 9.92 39.3776 10.3867 39.0976 10.984C38.8176 11.5627 38.6776 12.2347 38.6776 13C38.6776 13.7653 38.8176 14.4467 39.0976 15.044C39.3776 15.6413 39.7603 16.108 40.2456 16.444C40.7496 16.78 41.319 16.948 41.9536 16.948ZM57.4573 20.336C56.5613 20.336 55.7213 20.2053 54.9373 19.944C54.1533 19.664 53.4626 19.272 52.8653 18.768C52.268 18.2453 51.8013 17.6107 51.4653 16.864L54.6293 15.408C54.9093 15.8373 55.292 16.2107 55.7773 16.528C56.2626 16.8453 56.8226 17.004 57.4573 17.004C58.0546 17.004 58.5213 16.92 58.8573 16.752C59.1933 16.584 59.3613 16.3413 59.3613 16.024C59.3613 15.688 59.2213 15.4453 58.9413 15.296C58.68 15.128 58.3253 14.988 57.8773 14.876L56.5893 14.54C55.2266 14.1853 54.1533 13.6253 53.3693 12.86C52.604 12.076 52.2213 11.18 52.2213 10.172C52.2213 8.73467 52.688 7.624 53.6213 6.84C54.5546 6.056 55.8706 5.664 57.5693 5.664C58.4466 5.664 59.2586 5.79467 60.0053 6.056C60.7706 6.31733 61.424 6.68133 61.9653 7.148C62.5066 7.61467 62.88 8.156 63.0853 8.772L60.0333 10.172C59.9026 9.79867 59.5853 9.50933 59.0813 9.304C58.5773 9.08 58.0733 8.968 57.5693 8.968C57.084 8.968 56.7013 9.07067 56.4213 9.276C56.16 9.48133 56.0293 9.76133 56.0293 10.116C56.0293 10.3587 56.16 10.564 56.4213 10.732C56.6826 10.8813 57.0466 11.012 57.5133 11.124L59.3333 11.572C60.248 11.796 60.9853 12.16 61.5453 12.664C62.1053 13.1493 62.5066 13.7 62.7493 14.316C63.0106 14.9133 63.1413 15.5013 63.1413 16.08C63.1413 16.92 62.8893 17.6667 62.3853 18.32C61.9 18.9547 61.228 19.4493 60.3693 19.804C59.5293 20.1587 58.5586 20.336 57.4573 20.336ZM71.8723 20.336C70.3229 20.336 69.1469 19.9533 68.3443 19.188C67.5603 18.4227 67.1683 17.3307 67.1683 15.912V1.632H70.8643V15.1C70.8643 15.6973 70.9949 16.1547 71.2563 16.472C71.5176 16.7707 71.9003 16.92 72.4043 16.92C72.5909 16.92 72.7963 16.8827 73.0203 16.808C73.2443 16.7147 73.4776 16.584 73.7203 16.416L75.0083 19.188C74.5603 19.524 74.0563 19.7947 73.4963 20C72.9549 20.224 72.4136 20.336 71.8723 20.336ZM64.9003 9.136V6H74.3643V9.136H64.9003ZM86.2993 20L86.2153 12.916C86.2153 12.076 86.122 11.3667 85.9353 10.788C85.7673 10.1907 85.4873 9.74267 85.0953 9.444C84.722 9.12667 84.218 8.968 83.5833 8.968C83.0233 8.968 82.5193 9.08933 82.0713 9.332C81.6233 9.57467 81.2406 9.96667 80.9233 10.508L77.6193 9.388C77.8806 8.79067 78.254 8.212 78.7393 7.652C79.2433 7.07333 79.8966 6.59733 80.6993 6.224C81.5206 5.85067 82.51 5.664 83.6673 5.664C85.0673 5.664 86.234 5.916 87.1673 6.42C88.1006 6.924 88.8006 7.67067 89.2673 8.66C89.734 9.63067 89.9673 10.8253 89.9673 12.244V20H86.2993ZM82.5193 20.336C80.8393 20.336 79.5326 19.9627 78.5993 19.216C77.6846 18.4693 77.2273 17.4147 77.2273 16.052C77.2273 14.5587 77.722 13.4387 78.7113 12.692C79.7193 11.9267 81.1286 11.544 82.9393 11.544H86.9713L87.0273 14.288H84.2273C83.014 14.288 82.174 14.4373 81.7073 14.736C81.2406 15.016 81.0073 15.4173 81.0073 15.94C81.0073 16.3507 81.194 16.6773 81.5673 16.92C81.9406 17.144 82.4633 17.256 83.1353 17.256C83.7326 17.256 84.2553 17.116 84.7033 16.836C85.17 16.5373 85.534 16.164 85.7953 15.716C86.0566 15.2493 86.1873 14.7733 86.1873 14.288H87.2233C87.2233 16.192 86.85 17.676 86.1033 18.74C85.3753 19.804 84.1806 20.336 82.5193 20.336ZM100.216 20.336C98.7597 20.336 97.4624 20.028 96.3237 19.412C95.1851 18.7773 94.2984 17.9093 93.6637 16.808C93.0291 15.688 92.7117 14.4187 92.7117 13C92.7117 11.5627 93.0291 10.2933 93.6637 9.192C94.2984 8.09067 95.1757 7.232 96.2957 6.616C97.4157 5.98133 98.7037 5.664 100.16 5.664C101.56 5.664 102.838 6.00933 103.996 6.7C105.153 7.39067 105.993 8.38933 106.516 9.696L103.044 10.928C102.782 10.3867 102.372 9.95733 101.812 9.64C101.27 9.304 100.664 9.136 99.9917 9.136C99.3011 9.136 98.6944 9.304 98.1717 9.64C97.6491 9.95733 97.2384 10.4053 96.9397 10.984C96.6411 11.5627 96.4917 12.2347 96.4917 13C96.4917 13.7653 96.6411 14.4373 96.9397 15.016C97.2384 15.576 97.6584 16.024 98.1997 16.36C98.7411 16.696 99.3571 16.864 100.048 16.864C100.72 16.864 101.326 16.6867 101.868 16.332C102.428 15.9773 102.838 15.5107 103.1 14.932L106.6 16.164C106.058 17.4893 105.209 18.516 104.052 19.244C102.913 19.972 101.634 20.336 100.216 20.336ZM109.341 20L109.313 0.231999H113.009L113.037 20H109.341ZM118.637 20V12.832L122.333 11.992V20H118.637ZM118.637 12.832C118.637 11.88 118.525 11.1427 118.301 10.62C118.077 10.0973 117.769 9.724 117.377 9.5C116.985 9.25733 116.528 9.136 116.005 9.136C115.053 9.11733 114.316 9.40667 113.793 10.004C113.289 10.6013 113.037 11.488 113.037 12.664H111.805C111.805 11.1707 112.02 9.91067 112.449 8.884C112.897 7.83867 113.513 7.04533 114.297 6.504C115.1 5.944 116.024 5.664 117.069 5.664C118.786 5.664 120.093 6.18667 120.989 7.232C121.885 8.25867 122.333 9.84533 122.333 11.992L118.637 12.832ZM132.394 20.336C131.012 20.336 129.79 20.028 128.726 19.412C127.662 18.7773 126.822 17.9093 126.206 16.808C125.608 15.7067 125.31 14.4373 125.31 13C125.31 11.5627 125.618 10.2933 126.234 9.192C126.868 8.09067 127.727 7.232 128.81 6.616C129.911 5.98133 131.171 5.664 132.59 5.664C133.803 5.664 134.923 5.99067 135.95 6.644C136.995 7.27867 137.835 8.22133 138.47 9.472C139.104 10.704 139.422 12.2067 139.422 13.98H135.67C135.688 12.748 135.558 11.768 135.278 11.04C135.016 10.2933 134.643 9.76133 134.158 9.444C133.672 9.108 133.103 8.94 132.45 8.94C131.759 8.94 131.171 9.08933 130.686 9.388C130.219 9.68667 129.864 10.144 129.622 10.76C129.379 11.3573 129.258 12.1413 129.258 13.112C129.258 13.952 129.416 14.652 129.734 15.212C130.051 15.772 130.48 16.2013 131.022 16.5C131.563 16.78 132.151 16.92 132.786 16.92C133.514 16.92 134.102 16.7613 134.55 16.444C135.016 16.1267 135.371 15.716 135.614 15.212L139.086 16.556C138.675 17.34 138.162 18.0213 137.546 18.6C136.93 19.16 136.192 19.5893 135.334 19.888C134.475 20.1867 133.495 20.336 132.394 20.336ZM127.718 13.98L127.746 11.096H137.602V13.98H127.718Z" fill="white"/>
</svg>
